<?xml version="1.0" standalone="no"?>
<!DOCTYPE svg PUBLIC "-//W3C//DTD SVG 20010904//EN"
 "http://www.w3.org/TR/2001/REC-SVG-20010904/DTD/svg10.dtd">
<svg version="1.0" xmlns="http://www.w3.org/2000/svg"
 width="512.000000pt" height="512.000000pt" viewBox="0 0 512.000000 512.000000"
 preserveAspectRatio="xMidYMid meet">
<metadata>
Created by potrace 1.11, written by Peter Selinger 2001-2013
</metadata>
<g transform="translate(0.000000,512.000000) scale(0.100000,-0.100000)"
fill="#000000" stroke="none">
<path d="M2745 4886 c-16 -7 -50 -22 -75 -33 -25 -12 -137 -62 -250 -113 -113
-51 -225 -101 -250 -112 -25 -12 -99 -45 -165 -75 -66 -30 -124 -56 -130 -58
-5 -1 -44 -18 -85 -37 -73 -35 -131 -61 -255 -118 -33 -15 -80 -36 -105 -48
-25 -11 -139 -63 -255 -115 -115 -52 -237 -107 -270 -122 -33 -15 -73 -33 -90
-40 -92 -41 -212 -96 -225 -104 -13 -7 -15 -46 -15 -250 0 -134 2 -246 5 -250
3 -3 46 -25 95 -47 50 -23 147 -67 216 -98 l126 -58 199 90 c110 49 224 101
254 115 169 78 212 97 216 97 2 0 47 20 100 45 52 25 100 45 105 45 6 0 9
-140 9 -382 0 -211 -1 -389 0 -396 0 -7 21 -22 48 -34 26 -11 125 -56 219 -99
l173 -78 210 95 c115 52 214 94 220 94 7 0 10 132 10 400 0 220 4 400 8 400 5
0 104 -43 222 -96 l213 -96 81 38 c98 45 149 67 156 69 3 0 32 14 65 29 33 16
78 36 100 46 l40 17 219 -100 218 -99 62 28 c33 14 88 39 121 54 33 15 103 47
155 70 52 24 97 46 100 51 4 6 5 468 1 490 0 4 -29 19 -63 34 -35 16 -105 48
-156 72 -50 23 -94 43 -97 43 -3 0 -31 13 -64 29 -57 27 -59 28 -92 12 -19 -9
-118 -54 -220 -100 l-186 -83 -79 34 c-44 19 -143 64 -221 99 l-143 64 0 201
0 201 -47 21 c-27 11 -124 54 -216 96 -93 42 -172 76 -175 76 -4 -1 -20 -7
-37 -14z"/>
<path d="M2450 1850 c-179 -82 -350 -160 -380 -174 -30 -14 -140 -64 -245
-111 -104 -48 -194 -88 -200 -89 -12 -3 -120 -53 -156 -72 -14 -7 -29 -11 -33
-7 -3 3 -6 2 -6 -4 0 -6 -10 -14 -22 -18 -13 -4 -25 -8 -28 -10 -3 -1 -22 -10
-44 -19 -21 -10 -86 -39 -143 -67 -58 -27 -107 -49 -108 -49 -2 0 -41 -17 -87
-38 -45 -21 -156 -72 -246 -112 -89 -40 -162 -76 -162 -79 0 -3 97 -49 215
-102 l214 -96 88 39 c488 220 606 274 653 295 30 14 74 34 98 44 l43 19 52
-24 c29 -13 77 -35 107 -49 227 -101 270 -121 270 -128 0 -4 -10 -11 -22 -15
-12 -3 -53 -21 -92 -39 -39 -19 -126 -58 -194 -88 l-122 -54 162 -73 c90 -40
189 -85 221 -100 l57 -26 -217 -99 c-120 -54 -219 -99 -221 -100 -1 -1 42 -22
97 -46 54 -24 96 -48 93 -53 -3 -5 0 -6 6 -3 5 4 60 -15 121 -43 61 -27 117
-50 125 -50 13 0 420 181 431 192 3 2 -89 47 -203 98 -114 52 -210 96 -214 99
-4 3 57 35 135 71 78 35 176 80 217 98 l74 35 -44 21 c-25 12 -74 34 -110 50
-36 15 -85 37 -110 48 -25 12 -74 34 -109 50 -35 15 -62 30 -60 32 2 2 87 40
189 86 102 45 198 89 214 97 l28 15 -208 94 c-115 52 -212 98 -216 102 -6 7
153 81 502 235 80 36 184 82 231 105 47 22 96 43 109 47 12 4 18 11 14 15 -9
8 -431 201 -436 199 -2 0 -149 -68 -328 -149z"/>
<path d="M4093 1400 c-4 -4 -57 -30 -118 -58 -60 -27 -145 -66 -188 -86 -43
-20 -82 -36 -86 -36 -4 0 -12 -5 -19 -12 -9 -9 39 -35 205 -110 l217 -98 218
98 c120 53 218 99 218 102 0 3 -55 29 -123 59 -67 30 -166 76 -219 101 -53 26
-100 44 -105 40z"/>
<path d="M3190 1387 c-14 -6 -74 -34 -135 -62 -60 -28 -145 -67 -187 -85 -43
-19 -78 -37 -78 -40 0 -6 59 -34 322 -149 92 -41 121 -50 135 -42 34 20 394
181 403 181 6 0 10 5 10 10 0 6 -4 10 -9 10 -5 0 -47 17 -93 39 -171 79 -331
151 -337 150 -3 0 -17 -5 -31 -12z"/>
</g>
</svg>
